<?xml version="1.0" encoding="UTF-8"?>
<svg xmlns="http://www.w3.org/2000/svg" xmlns:xlink="http://www.w3.org/1999/xlink" width="48pt" height="48pt" viewBox="0 0 48 48" version="1.1">
<g id="surface1111056">
<path style="fill-rule:evenodd;fill:rgb(0%,0%,0%);fill-opacity:1;stroke-width:10;stroke-linecap:butt;stroke-linejoin:round;stroke:rgb(100%,100%,100%);stroke-opacity:1;stroke-miterlimit:10;" d="M 93.169037 14.339258 L 93.169037 78.830964 L 157.660743 78.830964 L 157.660743 93.169037 L 93.169037 93.169037 L 93.169037 157.660743 L 78.830964 157.660743 L 78.830964 93.169037 L 14.339258 93.169037 L 14.339258 78.830964 L 78.830964 78.830964 L 78.830964 14.339258 Z M 93.169037 14.339258 " transform="matrix(0.263721,0,0,0.263721,1.32,1.32)"/>
<path style=" stroke:none;fill-rule:evenodd;fill:rgb(100%,100%,100%);fill-opacity:1;" d="M 22.109375 5.101562 L 22.109375 22.109375 L 5.101562 22.109375 L 5.101562 25.890625 L 22.109375 25.890625 L 22.109375 42.898438 L 25.890625 42.898438 L 25.890625 25.890625 L 42.898438 25.890625 L 42.898438 22.109375 L 25.890625 22.109375 L 25.890625 5.101562 Z M 22.109375 5.101562 "/>
</g>
</svg>
